# xmcd
# 
# Track frame offsets:
#     150
#     61518
#     90013
#     121596
#     148453
#     168559
#     193140
# 
# Disc length: 2952
# 
# Revision: 0
# Processed by: cddbd v1.5.2PL0 Copyright (c) Steve Scherf et al.
# Submitted via: fre:ac v1.0.17
# 
DISCID=550b8607
DTITLE=Heifetz, Kyung Wha Chung - Sibelius, Stravinsky Violin Concerti
DYEAR=0
DGENRE=
TTITLE0=Sibelius - 1. Allegro moderato
TTITLE1=Sibelius - 2. Adagio
TTITLE2=Sibelius - 3. Allegro ma non tanto
TTITLE3=Stravinsky Violin Concerto I
TTITLE4=Stravinsky Violin Concerto II
TTITLE5=Stravinsky Violin Concerto III
TTITLE6=Stravinsky Violin Concerto IV
EXTD=
EXTT0=
EXTT1=
EXTT2=
EXTT3=
EXTT4=
EXTT5=
EXTT6=
PLAYORDER=
